<svg width="75" height="21" viewBox="0 0 75 21" fill="none" xmlns="http://www.w3.org/2000/svg">
<g clip-path="url(#clip0_11_85)">
<path d="M54.5686 7.19519L52.1997 7.15362V1.83282C52.1997 1.50027 52.1997 0.835171 52.1997 0.544189C51.9036 0.544189 51.1845 0.544189 50.7614 0.544189C50.2115 0.544189 49.3232 0.959877 49.3232 2.37322V7.15362H46.9966C46.9966 8.6501 46.9966 8.81638 46.9966 9.81403H49.3232L49.3655 18.4603C49.3655 19.3748 49.7039 20.4972 50.7614 20.4972C51.1845 20.4972 54.2724 20.4972 54.5686 20.4972C54.5686 19.749 54.5686 19.6243 54.5686 17.9199C54.3993 17.9199 52.4535 17.9199 52.1997 17.9199C52.242 15.218 52.1997 12.516 52.1997 9.81403H54.5686C54.5686 9.10736 54.5686 8.69167 54.5686 7.19519Z" fill="black"/>
<path d="M21.912 6.15604C20.643 6.15604 19.4162 6.53016 18.401 7.19526C18.401 4.95054 18.401 2.7474 18.401 0.502686C16.7513 0.502686 15.5668 0.752098 15.5668 2.66426V19.0424C15.5668 19.6243 15.5245 20.0816 15.5245 20.4973C16.0745 20.4973 16.5398 20.4973 16.9628 20.4973C17.3858 20.4973 16.9628 20.4973 18.401 20.4973C18.401 20.4973 18.401 20.4973 18.401 19.0424V12.4329C18.401 10.5208 19.9662 8.98272 21.912 8.98272C23.8579 8.98272 25.4653 10.5208 25.4653 12.4329V19.0424C25.4653 19.458 25.4653 19.9153 25.4653 20.4973C25.8883 20.4973 26.4805 20.4973 26.9036 20.4973C27.3266 20.4973 27.8765 20.4973 28.3418 20.4973C28.3418 19.9984 28.3418 19.4165 28.3418 19.0424V12.4329C28.3418 8.98272 25.4653 6.15604 21.912 6.15604Z" fill="black"/>
<path d="M7.48731 20.4557C9.98308 20.3726 12.225 19.084 13.4941 17.0055C12.7327 16.5483 12.4365 16.382 11.0406 15.5506C10.2792 16.8392 8.88325 17.5875 7.40271 17.6706C4.99154 17.7122 2.91878 15.8416 2.83418 13.4722C2.74958 11.1028 4.69543 9.10745 7.1066 9.02432C8.71405 8.98275 10.1946 9.73099 10.9983 11.0612C12.6058 10.1051 12.9019 9.89726 13.4518 9.56471C12.0558 7.40314 9.60237 6.1145 7.022 6.19764C3.00339 6.32235 -0.126901 9.60628 2.77651e-06 13.5553C0.126906 17.5043 3.511 20.5804 7.48731 20.4557Z" fill="black"/>
<path d="M57.0643 7.15369H59.9408V20.4973H57.0643V7.15369Z" fill="black"/>
<path fill-rule="evenodd" clip-rule="evenodd" d="M42.132 17.7953H37.6058C35.1523 17.7953 33.1218 15.8 33.1218 13.389V13.3474C33.1218 10.9364 35.1523 8.94111 37.6058 8.94111C40.1015 8.94111 42.132 10.9364 42.132 13.3474V17.7953ZM44.8816 20.4972H37.6058C33.6294 20.4972 30.3723 17.2964 30.3723 13.389V13.3474C30.3723 9.43993 33.6294 6.23914 37.6058 6.23914C41.6244 6.23914 44.8816 9.43993 44.8816 13.3474V20.4972Z" fill="black"/>
<path d="M57.6989 2.37323C57.4028 2.66421 57.1912 2.91363 57.1489 3.16304C57.0643 3.49559 57.1066 3.82814 57.3182 4.11912C57.5297 4.4101 57.8258 4.61795 58.2065 4.70108C58.5872 4.78422 58.9679 4.74265 59.264 4.57638C59.6024 4.4101 59.8139 4.16069 59.8985 3.78657C60.0254 3.20461 59.7716 2.49794 59.0525 1.66656C58.5026 1.00146 58.0796 0.627343 57.7835 0.544205C57.4451 0.461068 57.1912 0.585774 57.1489 0.876755C57.1066 1.00146 57.1489 1.16774 57.2758 1.41715L57.4028 1.7497L57.6989 2.37323Z" fill="black"/>
<path d="M69.6701 7.15362H67.3012V1.83282C67.3012 1.50027 67.3012 0.835171 67.3012 0.544189C66.9628 0.544189 66.2437 0.544189 65.863 0.544189C65.2707 0.544189 64.4247 0.959877 64.4247 2.33165V7.15362H62.0558C62.0558 8.6501 62.0558 8.81638 62.0558 9.81403H64.4247V18.4603C64.4247 19.3333 64.7631 20.4972 65.863 20.4972C66.2437 20.4972 69.374 20.4972 69.6701 20.4972C69.6701 19.749 69.6701 19.6243 69.6701 17.9199C69.4586 17.9199 67.555 17.9199 67.3012 17.9199C67.3012 15.218 67.3012 12.516 67.3012 9.81403H69.6701C69.6701 9.10736 69.6701 8.69167 69.6701 7.15362Z" fill="black"/>
<path d="M72.1235 7.11206H75V20.4972H72.1235V7.11206Z" fill="black"/>
<path d="M72.758 2.37323C72.4619 2.66421 72.2927 2.91363 72.2081 3.16304C72.1235 3.49559 72.2081 3.82814 72.3773 4.11912C72.5888 4.4101 72.8849 4.57638 73.3079 4.70108C73.6887 4.78422 74.0271 4.74265 74.3655 4.57638C74.6616 4.4101 74.8731 4.11912 74.9577 3.78657C75.1269 3.20461 74.8308 2.49794 74.154 1.66656C73.6041 1.00146 73.181 0.627343 72.8849 0.544205C72.5042 0.461068 72.2927 0.585774 72.2081 0.876755C72.1658 0.959893 72.2081 1.16774 72.335 1.41715L72.4619 1.70813L72.758 2.37323Z" fill="black"/>
</g>
<defs>
<clipPath id="clip0_11_85">
<rect width="75" height="20" fill="white" transform="translate(0 0.5)"/>
</clipPath>
</defs>
</svg>
