<svg width="40" height="40" viewBox="0 0 40 40" fill="none" xmlns="http://www.w3.org/2000/svg">
<path d="M8.0769 16.1538H4.23075C3.61537 16.1538 3.0769 16.6923 3.0769 17.3077V35C3.0769 35.6154 3.61537 36.1538 4.23075 36.1538H6.15383C7.84614 36.1538 9.23075 34.7692 9.23075 33.0769V17.3077C9.23075 16.6923 8.69229 16.1538 8.0769 16.1538Z" fill="#8DB9D9"/>
<path d="M33.8461 16.9231H29.2308C27.5384 16.9231 26.1538 15.5385 26.1538 13.8461V6.15384C26.1538 4.46153 24.7692 3.07692 23.0769 3.07692H21.1538C20.5384 3.07692 20 3.61538 20 4.23077V8.84615C20 12.9231 17.1538 16.9231 13.4615 16.9231C12.8461 16.9231 12.3077 17.4615 12.3077 18.0769V33.4615C12.3077 34.0769 12.7692 34.6154 13.3846 34.6154C18.6154 34.8461 20.3846 36.9231 25.8461 36.9231C31.6154 36.9231 36.9231 36.3077 36.9231 29.6154V25.7692V20C36.9231 18.3077 35.5384 16.9231 33.8461 16.9231Z" fill="#8DB9D9"/>
</svg>
