<svg width="40" height="40" viewBox="0 0 40 40" fill="none" xmlns="http://www.w3.org/2000/svg">
<path d="M35.5385 29.9231L21.0769 38.1538C20.3077 38.6154 19.3077 38.6154 18.5385 38.1538L4.15386 29.9231C3.53848 29.6154 3.53848 28.8462 4.15386 28.5385L7.53848 26.6154C7.76924 26.4615 8.07694 26.4615 8.30771 26.6154L17.0769 31.6154C17.9231 32.0769 18.8462 32.3077 19.8462 32.3077C20.8462 32.3077 21.7692 32.0769 22.6154 31.6154L31.3846 26.6154C31.6154 26.4615 31.9231 26.4615 32.1539 26.6154L35.5385 28.5385C36.1539 28.8462 36.1539 29.6154 35.5385 29.9231Z" fill="#8DB9D9"/>
<path d="M35.5385 20.6923L21.0769 28.9231C20.3077 29.3846 19.3077 29.3846 18.5385 28.9231L4.15386 20.6923C3.53848 20.3846 3.53848 19.6154 4.15386 19.3077L7.53848 17.3846C7.76924 17.2308 8.07694 17.2308 8.30771 17.3846L17.0769 22.3846C17.9231 22.8461 18.8462 23.0769 19.8462 23.0769C20.8462 23.0769 21.7692 22.8461 22.6154 22.3846L31.3846 17.3846C31.6154 17.2308 31.9231 17.2308 32.1539 17.3846L35.5385 19.3077C36.1539 19.6154 36.1539 20.3846 35.5385 20.6923Z" fill="#8DB9D9"/>
<path d="M18.6923 19.6923L4.23076 11.4615C3.61538 11.1538 3.61538 10.3846 4.23076 10.0769L18.6923 1.84615C19.4615 1.38462 20.4615 1.38462 21.2308 1.84615L35.6923 10.0769C36.3077 10.3846 36.3077 11.1538 35.6923 11.4615L21.2308 19.6923C20.4615 20.0769 19.4615 20.0769 18.6923 19.6923Z" fill="#8DB9D9"/>
</svg>
