<svg width="40" height="40" viewBox="0 0 40 40" fill="none" xmlns="http://www.w3.org/2000/svg">
<path d="M20 1.53846C9.76922 1.53846 1.53845 9.76923 1.53845 20C1.53845 30.2308 9.76922 38.4615 20 38.4615C30.2308 38.4615 38.4615 30.2308 38.4615 20C38.4615 9.76923 30.2308 1.53846 20 1.53846ZM21.5385 5.46154C21.4615 5.46154 21.4615 5.46154 21.3846 5.46154C21.4615 5.46154 21.5385 5.46154 21.5385 5.46154ZM20 34.6154C11.9231 34.6154 5.38461 28.0769 5.38461 20C5.38461 19.2308 5.46153 18.3846 5.61538 17.6923C6.61537 17.8461 7.84614 18.2308 8.46153 18.8461C9.76922 20.2308 11.2308 21.8461 12.6154 22.1538C12.6154 22.1538 12.4615 22.2308 12.3077 22.4615C12.1538 22.6923 12 23.1538 12 23.9231C12 27.5385 15.3846 25.3846 15.3846 29C15.3846 32.6154 19.4615 34.0769 19.4615 31.1538C19.4615 28.2308 22.1538 26.8461 22.1538 24.6154C22.1538 22.3846 20.0769 22.4615 18.7692 21.6923C17.3846 21 16.6923 19.8461 14.0769 20.2308C12.6923 18.9231 11.9231 17.8461 12.5385 16.6154C13.2308 15.3077 16.0769 15.0769 16.0769 13.0769C16.0769 11.0769 14.1538 10.6923 12.7692 10.6923C12.1538 10.6923 10.8461 10.2308 9.76922 9.69231C11.0769 8.38461 12.6923 7.30769 14.3846 6.53846C15.6154 7.07692 17.6923 7.92307 19.4615 7.92307C21.5384 7.92307 22.6154 6.46154 22.3077 5.53846C25.7692 6.07692 28.8461 7.84615 31.0769 10.3077C29.9231 11 28.3846 11.7692 25.6923 11.7692C22.1538 11.7692 22.1538 15.3846 24.2308 16.0769C26.3846 16.7692 28.5384 14.6923 29.2308 16.0769C29.9231 17.4615 24.2308 17.4615 25.6923 21C27.1538 24.5385 28.5384 20.9231 30 24.4615C31.4615 28 34.3077 23.9231 32.1538 21.1538C31.2308 19.9231 31.4615 16.1538 33.6154 16.1538H34.3077C34.6154 17.3846 34.8461 18.6923 34.8461 20C34.6154 28.0769 28.0769 34.6154 20 34.6154Z" fill="#8DB9D9"/>
</svg>
