<svg width="40" height="40" viewBox="0 0 40 40" fill="none" xmlns="http://www.w3.org/2000/svg">
<path d="M36.6923 7C36 5.30769 35.1539 3.76923 34.1539 2.30769C33.6923 1.69231 32.8462 1.61538 32.3846 2.15385C30.9231 3.53846 28.8462 4.30769 26.6923 4.30769C24.3846 4.30769 22.3077 3.38462 20.7692 1.84615C20.3077 1.38462 19.5385 1.38462 19.0769 1.84615C17.5385 3.38462 15.4616 4.30769 13.1539 4.30769C11 4.30769 9.00002 3.53846 7.46156 2.15385C6.9231 1.69231 6.07694 1.76923 5.69233 2.30769C4.69233 3.69231 3.84617 5.30769 3.15386 7C3.15386 7 1.30771 10.7692 1.6154 17V17.0769C1.6154 17.2308 1.6154 17.3846 1.6154 17.6154C1.6154 17.9231 1.69233 18.2308 1.69233 18.5385V18.6154C2.76925 28.9231 10.3846 37.1538 20 38.4615C29.6923 37.0769 37.2308 28.8462 38.3077 18.5385C38.3077 18.4615 38.3077 18.3846 38.3077 18.3077C38.3077 18.1538 38.3077 17.9231 38.3846 17.6923C38.9231 11.0769 36.6923 7 36.6923 7ZM31.4616 14.9231L18.6923 27.9231C18.3846 28.2308 18 28.2308 17.6923 27.9231L10.2308 20.3846C9.92309 20.0769 9.92309 19.6923 10.2308 19.3846L11.2308 18.3846C11.5385 18.0769 11.9231 18.0769 12.2308 18.3846L17.8462 24.0769C18 24.2308 18.3077 24.2308 18.5385 24.0769L29.5385 13C29.8462 12.6923 30.2308 12.6923 30.5385 13L31.5385 14C31.7692 14.2308 31.7692 14.6923 31.4616 14.9231Z" fill="#8DB9D9"/>
</svg>
